<mxfile host="Electron" agent="Mozilla/5.0 (Windows NT 10.0; Win64; x64) AppleWebKit/537.36 (KHTML, like Gecko) draw.io/27.0.9 Chrome/134.0.6998.205 Electron/35.4.0 Safari/537.36" version="27.0.9">
  <diagram name="PÃ¡gina-1" id="J3sorNJhHRmfYNja-w2y">
    <mxGraphModel dx="692" dy="595" grid="1" gridSize="10" guides="1" tooltips="1" connect="1" arrows="1" fold="1" page="1" pageScale="1" pageWidth="827" pageHeight="1169" math="0" shadow="0">
      <root>
        <mxCell id="0" />
        <mxCell id="1" parent="0" />
        <mxCell id="r1Hkv0blienNLOCe00i1-1" value="&lt;font style=&quot;vertical-align: inherit;&quot;&gt;&lt;font style=&quot;vertical-align: inherit;&quot;&gt;Administrador&lt;/font&gt;&lt;/font&gt;" style="shape=umlLifeline;perimeter=lifelinePerimeter;whiteSpace=wrap;html=1;container=0;dropTarget=0;collapsible=0;recursiveResize=0;outlineConnect=0;portConstraint=eastwest;newEdgeStyle={&quot;edgeStyle&quot;:&quot;elbowEdgeStyle&quot;,&quot;elbow&quot;:&quot;vertical&quot;,&quot;curved&quot;:0,&quot;rounded&quot;:0};" vertex="1" parent="1">
          <mxGeometry x="260" y="260" width="120" height="560" as="geometry" />
        </mxCell>
        <mxCell id="r1Hkv0blienNLOCe00i1-2" value="Sistema de Gestion" style="shape=umlLifeline;perimeter=lifelinePerimeter;whiteSpace=wrap;html=1;container=0;dropTarget=0;collapsible=0;recursiveResize=0;outlineConnect=0;portConstraint=eastwest;newEdgeStyle={&quot;edgeStyle&quot;:&quot;elbowEdgeStyle&quot;,&quot;elbow&quot;:&quot;vertical&quot;,&quot;curved&quot;:0,&quot;rounded&quot;:0};" vertex="1" parent="1">
          <mxGeometry x="440" y="260" width="80" height="560" as="geometry" />
        </mxCell>
        <mxCell id="r1Hkv0blienNLOCe00i1-3" value="&lt;span style=&quot;color: rgba(0, 0, 0, 0); font-family: monospace; font-size: 0px; text-align: start;&quot;&gt;%3CmxGraphModel%3E%3Croot%3E%3CmxCell%20id%3D%220%22%2F%3E%3CmxCell%20id%3D%221%22%20parent%3D%220%22%2F%3E%3CmxCell%20id%3D%222%22%20value%3D%229%3AAgenda%20Disponible%22%20style%3D%22html%3D1%3BverticalAlign%3Dbottom%3BendArrow%3Dopen%3Bdashed%3D1%3BendSize%3D8%3BedgeStyle%3DelbowEdgeStyle%3Belbow%3Dhorizontal%3Bcurved%3D0%3Brounded%3D0%3BexitX%3D0.5%3BexitY%3D0.885%3BexitDx%3D0%3BexitDy%3D0%3BexitPerimeter%3D0%3BentryX%3D0.545%3BentryY%3D0.885%3BentryDx%3D0%3BentryDy%3D0%3BentryPerimeter%3D0%3B%22%20edge%3D%221%22%20parent%3D%221%22%3E%3CmxGeometry%20relative%3D%221%22%20as%3D%22geometry%22%3E%3CmxPoint%20x%3D%221030%22%20y%3D%22900%22%20as%3D%22targetPoint%22%2F%3E%3CArray%20as%3D%22points%22%3E%3CmxPoint%20x%3D%221135%22%20y%3D%22900%22%2F%3E%3C%2FArray%3E%3CmxPoint%20x%3D%221240%22%20y%3D%22900%22%20as%3D%22sourcePoint%22%2F%3E%3CmxPoint%20as%3D%22offset%22%2F%3E%3C%2FmxGeometry%3E%3C%2FmxCell%3E%3C%2Froot%3E%3C%2FmxGraphModel%3E&lt;/span&gt;" style="html=1;points=[];perimeter=orthogonalPerimeter;outlineConnect=0;targetShapes=umlLifeline;portConstraint=eastwest;newEdgeStyle={&quot;edgeStyle&quot;:&quot;elbowEdgeStyle&quot;,&quot;elbow&quot;:&quot;vertical&quot;,&quot;curved&quot;:0,&quot;rounded&quot;:0};" vertex="1" parent="r1Hkv0blienNLOCe00i1-2">
          <mxGeometry x="45" y="70" width="10" height="70" as="geometry" />
        </mxCell>
        <mxCell id="r1Hkv0blienNLOCe00i1-4" value="&lt;font style=&quot;vertical-align: inherit;&quot;&gt;&lt;font style=&quot;vertical-align: inherit;&quot;&gt;&lt;font style=&quot;vertical-align: inherit;&quot;&gt;&lt;font style=&quot;vertical-align: inherit;&quot;&gt;Base de Datos&lt;/font&gt;&lt;/font&gt;&lt;/font&gt;&lt;/font&gt;" style="shape=umlLifeline;perimeter=lifelinePerimeter;whiteSpace=wrap;html=1;container=0;dropTarget=0;collapsible=0;recursiveResize=0;outlineConnect=0;portConstraint=eastwest;newEdgeStyle={&quot;edgeStyle&quot;:&quot;elbowEdgeStyle&quot;,&quot;elbow&quot;:&quot;vertical&quot;,&quot;curved&quot;:0,&quot;rounded&quot;:0};" vertex="1" parent="1">
          <mxGeometry x="865" y="270" width="105" height="560" as="geometry" />
        </mxCell>
        <mxCell id="r1Hkv0blienNLOCe00i1-5" value="" style="html=1;points=[];perimeter=orthogonalPerimeter;outlineConnect=0;targetShapes=umlLifeline;portConstraint=eastwest;newEdgeStyle={&quot;edgeStyle&quot;:&quot;elbowEdgeStyle&quot;,&quot;elbow&quot;:&quot;vertical&quot;,&quot;curved&quot;:0,&quot;rounded&quot;:0};" vertex="1" parent="r1Hkv0blienNLOCe00i1-4">
          <mxGeometry x="45" y="100" width="10" height="370" as="geometry" />
        </mxCell>
        <mxCell id="r1Hkv0blienNLOCe00i1-6" value="" style="html=1;verticalAlign=bottom;endArrow=block;edgeStyle=elbowEdgeStyle;elbow=vertical;curved=0;rounded=0;exitX=0.916;exitY=0.952;exitDx=0;exitDy=0;exitPerimeter=0;" edge="1" parent="1" source="r1Hkv0blienNLOCe00i1-9" target="r1Hkv0blienNLOCe00i1-4">
          <mxGeometry relative="1" as="geometry">
            <mxPoint x="515" y="360" as="sourcePoint" />
            <Array as="points">
              <mxPoint x="605" y="380" />
            </Array>
            <mxPoint x="685" y="360" as="targetPoint" />
          </mxGeometry>
        </mxCell>
        <mxCell id="r1Hkv0blienNLOCe00i1-7" value="&lt;div style=&quot;text-align: center;&quot;&gt;&lt;span style=&quot;font-size: 11px; text-wrap: nowrap; background-color: rgb(255, 255, 255);&quot;&gt;&lt;font style=&quot;vertical-align: inherit;&quot;&gt;&lt;font style=&quot;vertical-align: inherit;&quot;&gt;2:Validacion de Usuario&lt;/font&gt;&lt;/font&gt;&lt;/span&gt;&lt;/div&gt;" style="text;whiteSpace=wrap;html=1;" vertex="1" parent="1">
          <mxGeometry x="530" y="350" width="110" height="40" as="geometry" />
        </mxCell>
        <mxCell id="r1Hkv0blienNLOCe00i1-8" value="" style="html=1;verticalAlign=bottom;endArrow=block;edgeStyle=elbowEdgeStyle;elbow=vertical;curved=0;rounded=0;" edge="1" parent="1" source="r1Hkv0blienNLOCe00i1-2" target="r1Hkv0blienNLOCe00i1-9">
          <mxGeometry relative="1" as="geometry">
            <mxPoint x="495" y="360" as="sourcePoint" />
            <Array as="points" />
            <mxPoint x="665" y="360" as="targetPoint" />
          </mxGeometry>
        </mxCell>
        <mxCell id="r1Hkv0blienNLOCe00i1-9" value="&lt;div style=&quot;text-align: center;&quot;&gt;&lt;span style=&quot;font-size: 11px; text-wrap: nowrap; background-color: rgb(255, 255, 255);&quot;&gt;&lt;font style=&quot;vertical-align: inherit;&quot;&gt;&lt;font style=&quot;vertical-align: inherit;&quot;&gt;&lt;font style=&quot;vertical-align: inherit;&quot;&gt;&lt;font style=&quot;vertical-align: inherit;&quot;&gt;1: Inisio de Sesion&lt;/font&gt;&lt;/font&gt;&lt;/font&gt;&lt;/font&gt;&lt;/span&gt;&lt;/div&gt;" style="text;whiteSpace=wrap;html=1;" vertex="1" parent="1">
          <mxGeometry x="315" y="340" width="200" height="40" as="geometry" />
        </mxCell>
        <mxCell id="r1Hkv0blienNLOCe00i1-10" value="" style="html=1;verticalAlign=bottom;endArrow=open;dashed=1;endSize=8;edgeStyle=elbowEdgeStyle;elbow=horizontal;curved=0;rounded=0;" edge="1" parent="1" source="r1Hkv0blienNLOCe00i1-5">
          <mxGeometry x="-0.0051" y="-20" relative="1" as="geometry">
            <mxPoint x="482.5" y="440" as="targetPoint" />
            <Array as="points">
              <mxPoint x="577.5" y="440" />
            </Array>
            <mxPoint x="677.5" y="440" as="sourcePoint" />
            <mxPoint as="offset" />
          </mxGeometry>
        </mxCell>
        <mxCell id="r1Hkv0blienNLOCe00i1-11" value="" style="endArrow=classic;html=1;rounded=0;entryX=0.878;entryY=0.931;entryDx=0;entryDy=0;entryPerimeter=0;" edge="1" parent="1" source="r1Hkv0blienNLOCe00i1-1" target="r1Hkv0blienNLOCe00i1-9">
          <mxGeometry width="50" height="50" relative="1" as="geometry">
            <mxPoint x="325" y="420" as="sourcePoint" />
            <mxPoint x="375" y="370" as="targetPoint" />
          </mxGeometry>
        </mxCell>
        <mxCell id="r1Hkv0blienNLOCe00i1-12" value="&lt;div style=&quot;text-align: center;&quot;&gt;&lt;span style=&quot;font-size: 11px; text-wrap: nowrap; background-color: rgb(255, 255, 255);&quot;&gt;4:Crear Modulo&amp;nbsp; De Reportes&lt;/span&gt;&lt;/div&gt;" style="text;whiteSpace=wrap;html=1;" vertex="1" parent="1">
          <mxGeometry x="320" y="450" width="130" height="40" as="geometry" />
        </mxCell>
        <mxCell id="r1Hkv0blienNLOCe00i1-13" value="" style="endArrow=classic;html=1;rounded=0;" edge="1" parent="1" target="r1Hkv0blienNLOCe00i1-22">
          <mxGeometry width="50" height="50" relative="1" as="geometry">
            <mxPoint x="477.25" y="520" as="sourcePoint" />
            <mxPoint x="692.75" y="520" as="targetPoint" />
          </mxGeometry>
        </mxCell>
        <mxCell id="r1Hkv0blienNLOCe00i1-14" value="&lt;div style=&quot;text-align: center;&quot;&gt;&lt;span style=&quot;font-size: 11px; text-wrap: nowrap; background-color: rgb(255, 255, 255);&quot;&gt;9:Confirmacion de Guardado&lt;/span&gt;&lt;/div&gt;" style="text;whiteSpace=wrap;html=1;" vertex="1" parent="1">
          <mxGeometry x="325" y="790" width="130" height="40" as="geometry" />
        </mxCell>
        <mxCell id="r1Hkv0blienNLOCe00i1-15" value="" style="endArrow=classic;html=1;rounded=0;" edge="1" parent="1">
          <mxGeometry width="50" height="50" relative="1" as="geometry">
            <mxPoint x="320" y="489" as="sourcePoint" />
            <mxPoint x="481" y="489" as="targetPoint" />
          </mxGeometry>
        </mxCell>
        <mxCell id="r1Hkv0blienNLOCe00i1-16" value="&lt;div style=&quot;text-align: center;&quot;&gt;&lt;span style=&quot;font-size: 11px; text-wrap: nowrap; background-color: rgb(255, 255, 255);&quot;&gt;&lt;font style=&quot;vertical-align: inherit;&quot;&gt;&lt;font style=&quot;vertical-align: inherit;&quot;&gt;5: Validacion de Datos&lt;/font&gt;&lt;/font&gt;&lt;/span&gt;&lt;/div&gt;" style="text;whiteSpace=wrap;html=1;" vertex="1" parent="1">
          <mxGeometry x="500" y="520" width="110" height="40" as="geometry" />
        </mxCell>
        <mxCell id="r1Hkv0blienNLOCe00i1-17" value="&lt;div style=&quot;text-align: center;&quot;&gt;&lt;span style=&quot;font-size: 11px; text-wrap: nowrap; background-color: rgb(255, 255, 255);&quot;&gt;&lt;font style=&quot;vertical-align: inherit;&quot;&gt;&lt;font style=&quot;vertical-align: inherit;&quot;&gt;3:Validacion de Datos&lt;/font&gt;&lt;/font&gt;&lt;/span&gt;&lt;/div&gt;" style="text;whiteSpace=wrap;html=1;" vertex="1" parent="1">
          <mxGeometry x="540" y="410" width="110" height="40" as="geometry" />
        </mxCell>
        <mxCell id="r1Hkv0blienNLOCe00i1-18" value="&lt;div style=&quot;text-align: center;&quot;&gt;&lt;span style=&quot;font-size: 11px; text-wrap: nowrap; background-color: rgb(255, 255, 255);&quot;&gt;6: Datos Validos&lt;/span&gt;&lt;/div&gt;" style="text;whiteSpace=wrap;html=1;" vertex="1" parent="1">
          <mxGeometry x="680" y="540" width="110" height="40" as="geometry" />
        </mxCell>
        <mxCell id="r1Hkv0blienNLOCe00i1-19" value="" style="endArrow=classic;html=1;rounded=0;" edge="1" parent="1" source="r1Hkv0blienNLOCe00i1-22" target="r1Hkv0blienNLOCe00i1-4">
          <mxGeometry width="50" height="50" relative="1" as="geometry">
            <mxPoint x="484.5" y="620" as="sourcePoint" />
            <mxPoint x="645.5" y="620" as="targetPoint" />
          </mxGeometry>
        </mxCell>
        <mxCell id="r1Hkv0blienNLOCe00i1-20" value="&lt;div style=&quot;text-align: center;&quot;&gt;&lt;span style=&quot;font-size: 11px; text-wrap: nowrap; background-color: rgb(255, 255, 255);&quot;&gt;7: Guardar Modulo de Reportes&lt;/span&gt;&lt;/div&gt;" style="text;whiteSpace=wrap;html=1;" vertex="1" parent="1">
          <mxGeometry x="710" y="610" width="110" height="40" as="geometry" />
        </mxCell>
        <mxCell id="r1Hkv0blienNLOCe00i1-21" value="&lt;div style=&quot;text-align: center;&quot;&gt;&lt;span style=&quot;font-size: 11px; text-wrap: nowrap; background-color: rgb(255, 255, 255);&quot;&gt;8: Guardar Modulo Reportes&lt;/span&gt;&lt;/div&gt;" style="text;whiteSpace=wrap;html=1;" vertex="1" parent="1">
          <mxGeometry x="740" y="680" width="110" height="40" as="geometry" />
        </mxCell>
        <mxCell id="r1Hkv0blienNLOCe00i1-22" value="&lt;span style=&quot;color: rgba(0, 0, 0, 0); font-family: monospace; font-size: 0px; text-align: start;&quot;&gt;%3CmxGraphModel%3E%3Croot%3E%3CmxCell%20id%3D%220%22%2F%3E%3CmxCell%20id%3D%221%22%20parent%3D%220%22%2F%3E%3CmxCell%20id%3D%222%22%20value%3D%229%3AAgenda%20Disponible%22%20style%3D%22html%3D1%3BverticalAlign%3Dbottom%3BendArrow%3Dopen%3Bdashed%3D1%3BendSize%3D8%3BedgeStyle%3DelbowEdgeStyle%3Belbow%3Dhorizontal%3Bcurved%3D0%3Brounded%3D0%3BexitX%3D0.5%3BexitY%3D0.885%3BexitDx%3D0%3BexitDy%3D0%3BexitPerimeter%3D0%3BentryX%3D0.545%3BentryY%3D0.885%3BentryDx%3D0%3BentryDy%3D0%3BentryPerimeter%3D0%3B%22%20edge%3D%221%22%20parent%3D%221%22%3E%3CmxGeometry%20relative%3D%221%22%20as%3D%22geometry%22%3E%3CmxPoint%20x%3D%221030%22%20y%3D%22900%22%20as%3D%22targetPoint%22%2F%3E%3CArray%20as%3D%22points%22%3E%3CmxPoint%20x%3D%221135%22%20y%3D%22900%22%2F%3E%3C%2FArray%3E%3CmxPoint%20x%3D%221240%22%20y%3D%22900%22%20as%3D%22sourcePoint%22%2F%3E%3CmxPoint%20as%3D%22offset%22%2F%3E%3C%2FmxGeometry%3E%3C%2FmxCell%3E%3C%2Froot%3E%3C%2FmxGraphModel%3E&lt;/span&gt;" style="html=1;points=[];perimeter=orthogonalPerimeter;outlineConnect=0;targetShapes=umlLifeline;portConstraint=eastwest;newEdgeStyle={&quot;edgeStyle&quot;:&quot;elbowEdgeStyle&quot;,&quot;elbow&quot;:&quot;vertical&quot;,&quot;curved&quot;:0,&quot;rounded&quot;:0};" vertex="1" parent="1">
          <mxGeometry x="645" y="480" width="10" height="310" as="geometry" />
        </mxCell>
        <mxCell id="r1Hkv0blienNLOCe00i1-23" value="" style="endArrow=classic;html=1;rounded=0;" edge="1" parent="1" target="r1Hkv0blienNLOCe00i1-4">
          <mxGeometry width="50" height="50" relative="1" as="geometry">
            <mxPoint x="650" y="580" as="sourcePoint" />
            <mxPoint x="791" y="580" as="targetPoint" />
          </mxGeometry>
        </mxCell>
        <mxCell id="r1Hkv0blienNLOCe00i1-24" value="" style="html=1;verticalAlign=bottom;endArrow=open;dashed=1;endSize=8;edgeStyle=elbowEdgeStyle;elbow=horizontal;curved=0;rounded=0;" edge="1" parent="1" source="r1Hkv0blienNLOCe00i1-5">
          <mxGeometry x="-0.0051" y="-20" relative="1" as="geometry">
            <mxPoint x="650" y="719" as="targetPoint" />
            <Array as="points">
              <mxPoint x="915" y="710" />
            </Array>
            <mxPoint x="946.25" y="719" as="sourcePoint" />
            <mxPoint as="offset" />
          </mxGeometry>
        </mxCell>
        <mxCell id="r1Hkv0blienNLOCe00i1-25" value="" style="html=1;verticalAlign=bottom;endArrow=open;dashed=1;endSize=8;edgeStyle=elbowEdgeStyle;elbow=horizontal;curved=0;rounded=0;" edge="1" parent="1">
          <mxGeometry x="-0.0051" y="-20" relative="1" as="geometry">
            <mxPoint x="476.25" y="760" as="targetPoint" />
            <Array as="points" />
            <mxPoint x="650" y="760" as="sourcePoint" />
            <mxPoint as="offset" />
          </mxGeometry>
        </mxCell>
        <mxCell id="r1Hkv0blienNLOCe00i1-26" value="&lt;div style=&quot;text-align: center;&quot;&gt;&lt;span style=&quot;font-size: 11px; text-wrap: nowrap; background-color: rgb(255, 255, 255);&quot;&gt;9: Modulo de Reportes&lt;/span&gt;&lt;/div&gt;" style="text;whiteSpace=wrap;html=1;" vertex="1" parent="1">
          <mxGeometry x="515" y="770" width="110" height="40" as="geometry" />
        </mxCell>
        <mxCell id="r1Hkv0blienNLOCe00i1-27" value="" style="html=1;verticalAlign=bottom;endArrow=open;dashed=1;endSize=8;edgeStyle=elbowEdgeStyle;elbow=horizontal;curved=0;rounded=0;" edge="1" parent="1">
          <mxGeometry x="-0.0051" y="-20" relative="1" as="geometry">
            <mxPoint x="320" y="770" as="targetPoint" />
            <Array as="points" />
            <mxPoint x="480" y="770" as="sourcePoint" />
            <mxPoint as="offset" />
          </mxGeometry>
        </mxCell>
      </root>
    </mxGraphModel>
  </diagram>
</mxfile>
